
        <svg xmlns="http://www.w3.org/2000/svg" xmlns:xlink="http://www.w3.org/1999/xlink" version="1.1" width="3162.3483109216136" height="700.3925287048862" viewBox="0 0 3162.3483109216136 700.3925287048862">
			
			<g transform="scale(8.117415546080682) translate(10, 10)">
				<defs id="SvgjsDefs15835"/><g id="SvgjsG15836" featureKey="mugSzh-0" transform="matrix(0.7474452706971225,0,0,0.7474452706971225,-16.16051441443957,-4.230540118094616)" fill="#000"><g xmlns="http://www.w3.org/2000/svg"><g><g><g><polygon points="44.611,12.766 44.625,12.766 44.638,12.766     "/><path d="M49.986,5.66c-15.595,0-28.365,12.748-28.365,28.367c0,6.895,3.301,15.34,5.996,20.447      c3.723,6.82,15.65,27.938,19.184,34.215l3.212,5.65l3.092-5.578c0.121-0.139,14.538-25.844,19.345-34.209      c2.867-5.029,5.93-13.922,5.93-20.525C78.379,18.408,65.614,5.66,49.986,5.66z M66.226,50.993      c-3.407,6.013-11.605,20.521-16.239,28.829c-4.812-8.457-13.146-23.343-16.089-28.757c-2.558-4.728-5.184-11.854-5.184-17.038      c0-11.692,9.583-21.254,21.286-21.261c-0.004,0-0.009,0-0.013,0h0.026c-0.004,0-0.009,0-0.013,0      c5.637,0.004,10.96,2.235,14.984,6.24c3.99,4.064,6.209,9.307,6.209,15.021C71.192,39.148,68.565,46.85,66.226,50.993z"/></g></g></g><g><path d="M37.58,41.55c-1.74,1.16-2.11,3.67-0.82,5.6c1.29,1.93,3.74,2.55,5.49,1.38L65.5,33l-4.66-6.98L37.58,41.55z     M63.627,32.723L42.048,47.136c-1.206,0.806-2.908,0.376-3.8-0.959c-0.037-0.056-0.065-0.114-0.098-0.17    c0.873,0.426,1.89,0.417,2.696-0.122l21.833-14.582L63.627,32.723z"/><path d="M68.31,33.6L61.36,23.19c-0.311-0.46-0.931-0.59-1.391-0.28s-0.59,0.93-0.279,1.39l0.38,0.57L36.51,40.6    c-2.32,1.55-2.81,4.88-1.1,7.45c1.72,2.56,4.98,3.38,7.3,1.84l23.56-15.74l0.381,0.57c0.31,0.46,0.93,0.58,1.39,0.28    C68.5,34.69,68.62,34.07,68.31,33.6z M42.25,48.53c-1.75,1.17-4.2,0.55-5.49-1.38c-1.29-1.93-0.92-4.44,0.82-5.6l23.26-15.53    L65.5,33L42.25,48.53z"/><path d="M38.15,46.007c0.033,0.056,0.062,0.115,0.098,0.17c0.892,1.335,2.594,1.765,3.8,0.959l21.579-14.414l-0.948-1.42    L40.846,45.885C40.04,46.423,39.023,46.433,38.15,46.007z"/></g></g></g><g id="SvgjsG15837" featureKey="PPkF4s-0" transform="matrix(2.7719516953276417,0,0,2.7719516953276417,59.56068483442612,-2.3032729684635083)" fill="#000"><path d="M8.32 8.12 l0 11.88 l-3.18 0 l0 -11.88 l-4.26 0 l0 -2.74 l11.68 0 l0 2.74 l-4.24 0 z M15.53 19.49 q-1.37 -0.77 -2.17 -2.09 t-0.8 -2.88 q0 -1.54 0.8 -2.86 t2.17 -2.09 t2.99 -0.77 t3 0.77 t2.19 2.09 t0.81 2.86 q0 1.56 -0.81 2.88 t-2.19 2.09 t-3 0.77 t-2.99 -0.77 z M17 11.83 q-0.7 0.41 -1.1 1.12 t-0.4 1.57 q0 0.9 0.39 1.61 t1.08 1.12 t1.55 0.41 q0.84 0 1.53 -0.41 t1.09 -1.13 t0.4 -1.6 q0 -0.86 -0.4 -1.57 t-1.09 -1.12 t-1.53 -0.41 q-0.82 0 -1.52 0.41 z M31.32 16.74 l-2.3 3.26 l-3.74 0 l4.14 -5.44 l-4.2 -5.52 l3.72 0 l2.38 3.38 l2.34 -3.38 l3.76 0 l-4.26 5.52 l4.16 5.44 l-3.76 0 z M42.54 16.87 q1.42 0.57 2.6 0.57 q1.24 0 1.97 -0.48 t0.73 -1.14 q0 -0.54 -0.43 -0.88 t-1.09 -0.51 t-1.74 -0.37 q-1.44 -0.24 -2.64 -0.62 t-2.18 -1.32 t-0.98 -2.54 q0 -2.36 1.73 -3.39 t4.07 -1.03 q1.8 0 3.13 0.49 t2.65 1.47 l-1.76 2.4 q-0.98 -0.7 -2.04 -1.1 t-2.1 -0.4 q-0.92 0 -1.72 0.33 t-0.8 1.11 q0 0.48 0.41 0.77 t0.9 0.42 t1.59 0.37 l0.72 0.14 q1.66 0.32 2.75 0.71 t1.89 1.31 t0.8 2.56 q0 2.22 -1.57 3.38 t-4.25 1.16 q-3.92 0 -6.6 -2.28 l1.68 -2.42 q0.86 0.72 2.28 1.29 z M55.68 19.51 q-1.38 -0.77 -2.19 -2.09 t-0.81 -2.88 t0.81 -2.87 t2.18 -2.08 t2.99 -0.77 q1.74 0 3.15 0.83 t2.25 2.37 l-2.7 1.06 q-0.48 -0.82 -1.18 -1.23 t-1.52 -0.41 q-1.3 0 -2.15 0.88 t-0.85 2.22 t0.86 2.22 t2.16 0.88 q1.8 0 2.78 -1.6 l2.54 1 q-1.58 3.24 -5.32 3.24 q-1.62 0 -3 -0.77 z M71.44 11.87 q-0.86 0.21 -1.58 0.99 t-0.72 2.28 l0 4.86 l-2.98 0 l0 -11 l2.98 0 l0 1.46 q0.74 -0.98 1.81 -1.33 t1.95 -0.33 l0 2.92 q-0.6 -0.06 -1.46 0.15 z M77.17 19.74 q-1.37 -0.54 -2.35 -1.83 t-0.98 -3.37 t0.99 -3.36 t2.37 -1.82 t2.62 -0.54 q1.44 0 2.74 0.64 t2.13 1.88 t0.87 2.94 q0 0.52 -0.02 0.9 t-0.04 0.48 l-8.68 0 q0.24 1.16 1.2 1.58 t1.8 0.42 q1.08 0 1.72 -0.39 t1.1 -0.89 l2.32 1.34 q-1.88 2.56 -5.14 2.56 q-1.28 0 -2.65 -0.54 z M77.78 12.05 q-0.78 0.61 -0.88 1.49 l5.5 0 q-0.06 -0.52 -0.4 -1 t-0.91 -0.79 t-1.29 -0.31 q-1.24 0 -2.02 0.61 z M90.79 19.74 q-1.37 -0.54 -2.35 -1.83 t-0.98 -3.37 t0.99 -3.36 t2.37 -1.82 t2.62 -0.54 q1.44 0 2.74 0.64 t2.13 1.88 t0.87 2.94 q0 0.52 -0.02 0.9 t-0.04 0.48 l-8.68 0 q0.24 1.16 1.2 1.58 t1.8 0.42 q1.08 0 1.72 -0.39 t1.1 -0.89 l2.32 1.34 q-1.88 2.56 -5.14 2.56 q-1.28 0 -2.65 -0.54 z M91.4 12.05 q-0.78 0.61 -0.88 1.49 l5.5 0 q-0.06 -0.52 -0.4 -1 t-0.91 -0.79 t-1.29 -0.31 q-1.24 0 -2.02 0.61 z M110.81 10.02 q1.03 1.22 1.03 3.48 l0 6.5 l-3.06 0 l0 -6.5 q0 -2.22 -2.12 -2.22 q-0.82 0 -1.48 0.65 t-0.62 2.25 l0 5.82 l-2.98 0 l0 -11 l2.98 0 l0 0.98 q0.54 -0.54 1.36 -0.86 t1.58 -0.32 q2.28 0 3.31 1.22 z"/></g>
			</g>
		</svg>
	